<mxfile host="app.diagrams.net" modified="2023-12-19T14:20:35.730Z" agent="Mozilla/5.0 (Windows NT 10.0; Win64; x64) AppleWebKit/537.36 (KHTML, like Gecko) Chrome/120.0.0.0 Safari/537.36" etag="QeNbR3t4QSlzaH5MFfW5" version="22.1.11" type="device">
  <diagram id="mKLGtlqu1TJgX5sNCrC6" name="第 1 页">
    <mxGraphModel dx="3772" dy="1573" grid="1" gridSize="10" guides="1" tooltips="1" connect="1" arrows="1" fold="1" page="1" pageScale="1" pageWidth="1169" pageHeight="827" math="0" shadow="0">
      <root>
        <mxCell id="0" />
        <mxCell id="1" parent="0" />
        <mxCell id="rF_avYMDpHW5X6vWjK1u-14" value="&lt;font style=&quot;font-size: 14px;&quot;&gt;Patient&lt;/font&gt;" style="swimlane;fontStyle=1;align=center;verticalAlign=top;childLayout=stackLayout;horizontal=1;startSize=30;horizontalStack=0;resizeParent=1;resizeParentMax=0;resizeLast=0;collapsible=0;marginBottom=0;html=1;whiteSpace=wrap;" parent="1" vertex="1">
          <mxGeometry x="-2297.84" y="-770" width="488.56" height="1510" as="geometry" />
        </mxCell>
        <mxCell id="NDW06Zr77RIwt1MHqJ4M-214" value="&lt;span style=&quot;font-size: 14px;&quot;&gt;Appointment System&lt;/span&gt;" style="swimlane;fontStyle=1;align=center;verticalAlign=top;childLayout=stackLayout;horizontal=1;startSize=30;horizontalStack=0;resizeParent=1;resizeParentMax=0;resizeLast=0;collapsible=0;marginBottom=0;html=1;whiteSpace=wrap;" parent="1" vertex="1">
          <mxGeometry x="-1674.37" y="-770" width="390" height="1517" as="geometry" />
        </mxCell>
        <mxCell id="NDW06Zr77RIwt1MHqJ4M-15" value="" style="ellipse;fillColor=strokeColor;html=1;" parent="1" vertex="1">
          <mxGeometry x="-2068.57" y="-719.5" width="30" height="30" as="geometry" />
        </mxCell>
        <mxCell id="NDW06Zr77RIwt1MHqJ4M-107" value="Get patient Info" style="html=1;align=center;verticalAlign=top;rounded=1;absoluteArcSize=1;arcSize=10;dashed=0;whiteSpace=wrap;fontFamily=Times New Roman;fontSize=14;fontStyle=1" parent="1" vertex="1">
          <mxGeometry x="-1549.37" y="-579.5" width="140" height="40" as="geometry" />
        </mxCell>
        <mxCell id="NDW06Zr77RIwt1MHqJ4M-111" value="" style="endArrow=open;startArrow=none;endFill=0;startFill=0;endSize=8;html=1;verticalAlign=bottom;labelBackgroundColor=none;strokeWidth=1;rounded=0;exitX=0.5;exitY=1;exitDx=0;exitDy=0;entryX=0.5;entryY=0;entryDx=0;entryDy=0;" parent="1" source="NDW06Zr77RIwt1MHqJ4M-15" target="NDW06Zr77RIwt1MHqJ4M-142" edge="1">
          <mxGeometry width="160" relative="1" as="geometry">
            <mxPoint x="-2072.32" y="-619" as="sourcePoint" />
            <mxPoint x="-2057.32" y="-629.5" as="targetPoint" />
          </mxGeometry>
        </mxCell>
        <mxCell id="NDW06Zr77RIwt1MHqJ4M-142" value="&amp;nbsp;Request Payment" style="html=1;align=center;verticalAlign=top;rounded=1;absoluteArcSize=1;arcSize=10;dashed=0;whiteSpace=wrap;fontFamily=Times New Roman;fontSize=14;fontStyle=1" parent="1" vertex="1">
          <mxGeometry x="-2136.69" y="-659.5" width="166.25" height="44" as="geometry" />
        </mxCell>
        <mxCell id="NDW06Zr77RIwt1MHqJ4M-143" value="" style="endArrow=classic;html=1;rounded=0;exitX=0.5;exitY=1;exitDx=0;exitDy=0;entryX=0;entryY=0.5;entryDx=0;entryDy=0;edgeStyle=orthogonalEdgeStyle;" parent="1" source="NDW06Zr77RIwt1MHqJ4M-142" target="NDW06Zr77RIwt1MHqJ4M-107" edge="1">
          <mxGeometry width="50" height="50" relative="1" as="geometry">
            <mxPoint x="-1560" y="-269.5" as="sourcePoint" />
            <mxPoint x="-1510" y="-319.5" as="targetPoint" />
          </mxGeometry>
        </mxCell>
        <mxCell id="NDW06Zr77RIwt1MHqJ4M-144" value="&lt;font face=&quot;Times New Roman&quot; style=&quot;font-size: 14px;&quot;&gt;&lt;b&gt;Patient Info (Name,Age)&lt;/b&gt;&lt;/font&gt;" style="rounded=0;whiteSpace=wrap;html=1;" parent="1" vertex="1">
          <mxGeometry x="-1597.62" y="-659.5" width="177" height="37" as="geometry" />
        </mxCell>
        <mxCell id="NDW06Zr77RIwt1MHqJ4M-145" value="" style="endArrow=classic;html=1;rounded=0;exitX=1;exitY=0.5;exitDx=0;exitDy=0;dashed=1;" parent="1" source="NDW06Zr77RIwt1MHqJ4M-142" edge="1">
          <mxGeometry width="50" height="50" relative="1" as="geometry">
            <mxPoint x="-1720" y="-589.5" as="sourcePoint" />
            <mxPoint x="-1600" y="-640" as="targetPoint" />
          </mxGeometry>
        </mxCell>
        <mxCell id="NDW06Zr77RIwt1MHqJ4M-147" value="" style="rhombus;" parent="1" vertex="1">
          <mxGeometry x="-1494.37" y="-469.5" width="30" height="30" as="geometry" />
        </mxCell>
        <mxCell id="NDW06Zr77RIwt1MHqJ4M-160" value="Check unpaid bill" style="html=1;align=center;verticalAlign=top;rounded=1;absoluteArcSize=1;arcSize=10;dashed=0;whiteSpace=wrap;fontFamily=Times New Roman;fontSize=14;fontStyle=1" parent="1" vertex="1">
          <mxGeometry x="-1605" y="-59.5" width="130" height="40" as="geometry" />
        </mxCell>
        <mxCell id="NDW06Zr77RIwt1MHqJ4M-159" value="" style="endArrow=classic;html=1;rounded=0;exitX=0;exitY=0.5;exitDx=0;exitDy=0;edgeStyle=orthogonalEdgeStyle;" parent="1" source="NDW06Zr77RIwt1MHqJ4M-147" edge="1">
          <mxGeometry width="50" height="50" relative="1" as="geometry">
            <mxPoint x="-1525.25" y="-259.5" as="sourcePoint" />
            <mxPoint x="-1930" y="-430" as="targetPoint" />
          </mxGeometry>
        </mxCell>
        <mxCell id="NDW06Zr77RIwt1MHqJ4M-162" value="Create patient record" style="html=1;align=center;verticalAlign=top;rounded=1;absoluteArcSize=1;arcSize=10;dashed=0;whiteSpace=wrap;fontFamily=Times New Roman;fontSize=14;fontStyle=1" parent="1" vertex="1">
          <mxGeometry x="-1435" y="-59.5" width="140" height="40" as="geometry" />
        </mxCell>
        <mxCell id="NDW06Zr77RIwt1MHqJ4M-164" value="" style="endArrow=classic;html=1;rounded=0;exitX=1;exitY=0.5;exitDx=0;exitDy=0;entryX=0.5;entryY=0;entryDx=0;entryDy=0;edgeStyle=orthogonalEdgeStyle;" parent="1" source="NDW06Zr77RIwt1MHqJ4M-147" target="NDW06Zr77RIwt1MHqJ4M-162" edge="1">
          <mxGeometry width="50" height="50" relative="1" as="geometry">
            <mxPoint x="-1484.37" y="-444.5" as="sourcePoint" />
            <mxPoint x="-1549.37" y="-379.5" as="targetPoint" />
          </mxGeometry>
        </mxCell>
        <mxCell id="NDW06Zr77RIwt1MHqJ4M-165" value="Exist pateient" style="text;whiteSpace=wrap;fontStyle=1;fontSize=14;" parent="1" vertex="1">
          <mxGeometry x="-1554.37" y="-449.5" width="80" height="40" as="geometry" />
        </mxCell>
        <mxCell id="NDW06Zr77RIwt1MHqJ4M-169" value="New pateient" style="text;whiteSpace=wrap;fontStyle=1;fontSize=14;" parent="1" vertex="1">
          <mxGeometry x="-1465.87" y="-449.5" width="80" height="40" as="geometry" />
        </mxCell>
        <mxCell id="NDW06Zr77RIwt1MHqJ4M-170" value="&lt;b&gt;&lt;font face=&quot;Times New Roman&quot; style=&quot;font-size: 13px;&quot;&gt;Bill&lt;/font&gt;&lt;/b&gt;" style="rounded=0;whiteSpace=wrap;html=1;" parent="1" vertex="1">
          <mxGeometry x="-1769.5" y="5.5" width="60" height="35" as="geometry" />
        </mxCell>
        <mxCell id="NDW06Zr77RIwt1MHqJ4M-172" value="" style="endArrow=classic;html=1;rounded=0;exitX=0;exitY=0.5;exitDx=0;exitDy=0;entryX=0.5;entryY=0;entryDx=0;entryDy=0;edgeStyle=orthogonalEdgeStyle;dashed=1;" parent="1" source="NDW06Zr77RIwt1MHqJ4M-160" target="NDW06Zr77RIwt1MHqJ4M-170" edge="1">
          <mxGeometry width="50" height="50" relative="1" as="geometry">
            <mxPoint x="-1635.88" y="100.5" as="sourcePoint" />
            <mxPoint x="-1585.88" y="50.5" as="targetPoint" />
          </mxGeometry>
        </mxCell>
        <mxCell id="NDW06Zr77RIwt1MHqJ4M-174" value="" style="rhombus;" parent="1" vertex="1">
          <mxGeometry x="-1555" y="19.5" width="30" height="30" as="geometry" />
        </mxCell>
        <mxCell id="NDW06Zr77RIwt1MHqJ4M-175" value="" style="endArrow=classic;html=1;rounded=0;exitX=0.5;exitY=1;exitDx=0;exitDy=0;entryX=0.5;entryY=0;entryDx=0;entryDy=0;" parent="1" source="NDW06Zr77RIwt1MHqJ4M-160" target="NDW06Zr77RIwt1MHqJ4M-174" edge="1">
          <mxGeometry width="50" height="50" relative="1" as="geometry">
            <mxPoint x="-1452" y="-190.5" as="sourcePoint" />
            <mxPoint x="-1450" y="-129.5" as="targetPoint" />
          </mxGeometry>
        </mxCell>
        <mxCell id="NDW06Zr77RIwt1MHqJ4M-176" value="" style="endArrow=classic;html=1;rounded=0;exitX=0;exitY=0.5;exitDx=0;exitDy=0;entryX=1;entryY=0.5;entryDx=0;entryDy=0;dashed=1;edgeStyle=orthogonalEdgeStyle;" parent="1" source="NDW06Zr77RIwt1MHqJ4M-170" target="NDW06Zr77RIwt1MHqJ4M-177" edge="1">
          <mxGeometry width="50" height="50" relative="1" as="geometry">
            <mxPoint x="-1985.88" y="50.5" as="sourcePoint" />
            <mxPoint x="-1935.88" y="0.5" as="targetPoint" />
            <Array as="points">
              <mxPoint x="-1880" y="23" />
              <mxPoint x="-1880" y="108" />
            </Array>
          </mxGeometry>
        </mxCell>
        <mxCell id="NDW06Zr77RIwt1MHqJ4M-177" value="&lt;b&gt;&lt;font face=&quot;Times New Roman&quot; style=&quot;font-size: 14px;&quot;&gt;Make Payment&lt;/font&gt;&lt;/b&gt;" style="rounded=1;whiteSpace=wrap;html=1;" parent="1" vertex="1">
          <mxGeometry x="-2170" y="77.63000000000011" width="232.87" height="60" as="geometry" />
        </mxCell>
        <mxCell id="NDW06Zr77RIwt1MHqJ4M-178" value="&lt;b&gt;&lt;font face=&quot;Times New Roman&quot; style=&quot;font-size: 14px;&quot;&gt;Ask for payment&lt;/font&gt;&lt;/b&gt;" style="rounded=1;whiteSpace=wrap;html=1;" parent="1" vertex="1">
          <mxGeometry x="-1595" y="89.88000000000011" width="110" height="47.75" as="geometry" />
        </mxCell>
        <mxCell id="NDW06Zr77RIwt1MHqJ4M-179" value="" style="endArrow=classic;html=1;rounded=0;exitX=0.5;exitY=1;exitDx=0;exitDy=0;" parent="1" source="NDW06Zr77RIwt1MHqJ4M-174" target="NDW06Zr77RIwt1MHqJ4M-178" edge="1">
          <mxGeometry width="50" height="50" relative="1" as="geometry">
            <mxPoint x="-1695" y="190.5" as="sourcePoint" />
            <mxPoint x="-1645" y="140.5" as="targetPoint" />
          </mxGeometry>
        </mxCell>
        <mxCell id="NDW06Zr77RIwt1MHqJ4M-180" value="" style="endArrow=classic;html=1;rounded=0;exitX=1;exitY=0.5;exitDx=0;exitDy=0;entryX=0.139;entryY=0.087;entryDx=0;entryDy=0;dashed=1;entryPerimeter=0;edgeStyle=orthogonalEdgeStyle;" parent="1" source="NDW06Zr77RIwt1MHqJ4M-170" target="NDW06Zr77RIwt1MHqJ4M-178" edge="1">
          <mxGeometry width="50" height="50" relative="1" as="geometry">
            <mxPoint x="-1755.88" y="18.5" as="sourcePoint" />
            <mxPoint x="-1926.88" y="18.5" as="targetPoint" />
          </mxGeometry>
        </mxCell>
        <mxCell id="NDW06Zr77RIwt1MHqJ4M-181" value="" style="endArrow=classic;html=1;rounded=0;exitX=0;exitY=0.75;exitDx=0;exitDy=0;" parent="1" source="NDW06Zr77RIwt1MHqJ4M-178" edge="1">
          <mxGeometry width="50" height="50" relative="1" as="geometry">
            <mxPoint x="-1825.88" y="160.5" as="sourcePoint" />
            <mxPoint x="-1940" y="126" as="targetPoint" />
          </mxGeometry>
        </mxCell>
        <mxCell id="NDW06Zr77RIwt1MHqJ4M-182" value="&lt;b&gt;&lt;font face=&quot;Times New Roman&quot; style=&quot;font-size: 14px;&quot;&gt;Find available Time&lt;/font&gt;&lt;/b&gt;" style="rounded=1;whiteSpace=wrap;html=1;" parent="1" vertex="1">
          <mxGeometry x="-1420" y="95.12" width="110" height="54.88" as="geometry" />
        </mxCell>
        <mxCell id="NDW06Zr77RIwt1MHqJ4M-183" value="" style="endArrow=classic;html=1;rounded=0;exitX=0.5;exitY=1;exitDx=0;exitDy=0;entryX=0.5;entryY=0;entryDx=0;entryDy=0;" parent="1" source="NDW06Zr77RIwt1MHqJ4M-162" target="NDW06Zr77RIwt1MHqJ4M-182" edge="1">
          <mxGeometry width="50" height="50" relative="1" as="geometry">
            <mxPoint x="-1530" y="59.5" as="sourcePoint" />
            <mxPoint x="-1530" y="99.5" as="targetPoint" />
          </mxGeometry>
        </mxCell>
        <mxCell id="NDW06Zr77RIwt1MHqJ4M-184" value="&lt;span style=&quot;font-size: 13px;&quot;&gt;&lt;b&gt;&lt;font face=&quot;Times New Roman&quot;&gt;Payment&lt;/font&gt;&lt;/b&gt;&lt;/span&gt;" style="rounded=0;whiteSpace=wrap;html=1;" parent="1" vertex="1">
          <mxGeometry x="-1769.5" y="150.5" width="60" height="35" as="geometry" />
        </mxCell>
        <mxCell id="NDW06Zr77RIwt1MHqJ4M-185" value="" style="endArrow=classic;html=1;rounded=0;dashed=1;exitX=0.5;exitY=1;exitDx=0;exitDy=0;entryX=0;entryY=0.5;entryDx=0;entryDy=0;edgeStyle=orthogonalEdgeStyle;" parent="1" source="NDW06Zr77RIwt1MHqJ4M-177" target="NDW06Zr77RIwt1MHqJ4M-184" edge="1">
          <mxGeometry width="50" height="50" relative="1" as="geometry">
            <mxPoint x="-1935.88" y="-229.5" as="sourcePoint" />
            <mxPoint x="-1605.88" y="-289.5" as="targetPoint" />
          </mxGeometry>
        </mxCell>
        <mxCell id="NDW06Zr77RIwt1MHqJ4M-187" value="&lt;span style=&quot;font-size: 14px;&quot;&gt;&lt;b&gt;&lt;font face=&quot;Times New Roman&quot;&gt;Clear unpaid biil&lt;/font&gt;&lt;/b&gt;&lt;/span&gt;" style="rounded=1;whiteSpace=wrap;html=1;" parent="1" vertex="1">
          <mxGeometry x="-1595" y="147.5" width="110" height="70" as="geometry" />
        </mxCell>
        <mxCell id="NDW06Zr77RIwt1MHqJ4M-186" value="" style="endArrow=classic;html=1;rounded=0;dashed=1;exitX=1;exitY=0.5;exitDx=0;exitDy=0;" parent="1" source="NDW06Zr77RIwt1MHqJ4M-184" edge="1">
          <mxGeometry width="50" height="50" relative="1" as="geometry">
            <mxPoint x="-1986.88" y="147.5" as="sourcePoint" />
            <mxPoint x="-1600" y="170.5" as="targetPoint" />
          </mxGeometry>
        </mxCell>
        <mxCell id="NDW06Zr77RIwt1MHqJ4M-188" value="" style="endArrow=classic;html=1;rounded=0;exitX=0.182;exitY=1.018;exitDx=0;exitDy=0;exitPerimeter=0;entryX=0;entryY=0.75;entryDx=0;entryDy=0;edgeStyle=orthogonalEdgeStyle;elbow=vertical;" parent="1" source="NDW06Zr77RIwt1MHqJ4M-177" target="NDW06Zr77RIwt1MHqJ4M-187" edge="1">
          <mxGeometry width="50" height="50" relative="1" as="geometry">
            <mxPoint x="-2025.88" y="330.5" as="sourcePoint" />
            <mxPoint x="-1975.88" y="280.5" as="targetPoint" />
            <Array as="points">
              <mxPoint x="-2128" y="200.5" />
            </Array>
          </mxGeometry>
        </mxCell>
        <mxCell id="NDW06Zr77RIwt1MHqJ4M-189" value="" style="endArrow=classic;html=1;rounded=0;exitX=1;exitY=0.5;exitDx=0;exitDy=0;entryX=0.334;entryY=0.125;entryDx=0;entryDy=0;entryPerimeter=0;edgeStyle=orthogonalEdgeStyle;" parent="1" source="NDW06Zr77RIwt1MHqJ4M-174" target="NDW06Zr77RIwt1MHqJ4M-182" edge="1">
          <mxGeometry width="50" height="50" relative="1" as="geometry">
            <mxPoint x="-1475" y="100.5" as="sourcePoint" />
            <mxPoint x="-1425" y="50.5" as="targetPoint" />
          </mxGeometry>
        </mxCell>
        <mxCell id="NDW06Zr77RIwt1MHqJ4M-190" value="&lt;span style=&quot;font-size: 13px;&quot;&gt;&lt;b&gt;&lt;font face=&quot;Times New Roman&quot;&gt;Available time&lt;/font&gt;&lt;/b&gt;&lt;/span&gt;" style="rounded=0;whiteSpace=wrap;html=1;" parent="1" vertex="1">
          <mxGeometry x="-1774.5" y="255.5" width="70" height="35" as="geometry" />
        </mxCell>
        <mxCell id="NDW06Zr77RIwt1MHqJ4M-192" value="" style="endArrow=classic;html=1;rounded=0;exitX=0.25;exitY=1;exitDx=0;exitDy=0;entryX=1;entryY=0.5;entryDx=0;entryDy=0;dashed=1;" parent="1" source="NDW06Zr77RIwt1MHqJ4M-182" target="NDW06Zr77RIwt1MHqJ4M-190" edge="1">
          <mxGeometry width="50" height="50" relative="1" as="geometry">
            <mxPoint x="-1625.88" y="320.5" as="sourcePoint" />
            <mxPoint x="-1575.88" y="270.5" as="targetPoint" />
            <Array as="points">
              <mxPoint x="-1392" y="273.5" />
            </Array>
          </mxGeometry>
        </mxCell>
        <mxCell id="NDW06Zr77RIwt1MHqJ4M-193" value="&lt;span style=&quot;font-size: 14px;&quot;&gt;&lt;b&gt;&lt;font face=&quot;Times New Roman&quot;&gt;Select Time&lt;/font&gt;&lt;/b&gt;&lt;/span&gt;" style="rounded=1;whiteSpace=wrap;html=1;" parent="1" vertex="1">
          <mxGeometry x="-2170" y="250.5" width="232.87" height="77" as="geometry" />
        </mxCell>
        <mxCell id="NDW06Zr77RIwt1MHqJ4M-194" value="" style="endArrow=classic;html=1;rounded=0;exitX=0;exitY=0.75;exitDx=0;exitDy=0;entryX=0.99;entryY=0.393;entryDx=0;entryDy=0;dashed=1;entryPerimeter=0;" parent="1" source="NDW06Zr77RIwt1MHqJ4M-190" target="NDW06Zr77RIwt1MHqJ4M-193" edge="1">
          <mxGeometry width="50" height="50" relative="1" as="geometry">
            <mxPoint x="-1710.88" y="35.5" as="sourcePoint" />
            <mxPoint x="-1640.88" y="104.5" as="targetPoint" />
          </mxGeometry>
        </mxCell>
        <mxCell id="NDW06Zr77RIwt1MHqJ4M-195" value="" style="endArrow=classic;html=1;rounded=0;exitX=0.75;exitY=1;exitDx=0;exitDy=0;entryX=1;entryY=0.75;entryDx=0;entryDy=0;edgeStyle=orthogonalEdgeStyle;" parent="1" source="NDW06Zr77RIwt1MHqJ4M-182" target="NDW06Zr77RIwt1MHqJ4M-193" edge="1">
          <mxGeometry width="50" height="50" relative="1" as="geometry">
            <mxPoint x="-1715.88" y="420.5" as="sourcePoint" />
            <mxPoint x="-1665.88" y="370.5" as="targetPoint" />
          </mxGeometry>
        </mxCell>
        <mxCell id="NDW06Zr77RIwt1MHqJ4M-196" value="&lt;span style=&quot;font-size: 13px;&quot;&gt;&lt;b&gt;&lt;font face=&quot;Times New Roman&quot;&gt;&amp;nbsp;Time&lt;/font&gt;&lt;/b&gt;&lt;/span&gt;" style="rounded=0;whiteSpace=wrap;html=1;" parent="1" vertex="1">
          <mxGeometry x="-1774.5" y="438.25" width="70" height="35" as="geometry" />
        </mxCell>
        <mxCell id="NDW06Zr77RIwt1MHqJ4M-198" value="" style="endArrow=classic;html=1;rounded=0;entryX=0.382;entryY=-0.095;entryDx=0;entryDy=0;dashed=1;entryPerimeter=0;exitX=1;exitY=1;exitDx=0;exitDy=0;edgeStyle=orthogonalEdgeStyle;" parent="1" source="NDW06Zr77RIwt1MHqJ4M-193" target="NDW06Zr77RIwt1MHqJ4M-196" edge="1">
          <mxGeometry width="50" height="50" relative="1" as="geometry">
            <mxPoint x="-1992.88" y="318.5" as="sourcePoint" />
            <mxPoint x="-1975.88" y="390.5" as="targetPoint" />
          </mxGeometry>
        </mxCell>
        <mxCell id="NDW06Zr77RIwt1MHqJ4M-199" value="&lt;span style=&quot;font-size: 14px;&quot;&gt;&lt;b&gt;&lt;font face=&quot;Times New Roman&quot;&gt;Record appointment&lt;/font&gt;&lt;/b&gt;&lt;/span&gt;" style="rounded=1;whiteSpace=wrap;html=1;" parent="1" vertex="1">
          <mxGeometry x="-1461.81" y="390" width="110" height="110.25" as="geometry" />
        </mxCell>
        <mxCell id="NDW06Zr77RIwt1MHqJ4M-200" value="" style="endArrow=classic;html=1;rounded=0;exitX=1;exitY=0.5;exitDx=0;exitDy=0;dashed=1;entryX=0.016;entryY=0.59;entryDx=0;entryDy=0;entryPerimeter=0;" parent="1" source="NDW06Zr77RIwt1MHqJ4M-196" edge="1" target="NDW06Zr77RIwt1MHqJ4M-199">
          <mxGeometry width="50" height="50" relative="1" as="geometry">
            <mxPoint x="-1691.19" y="503.25" as="sourcePoint" />
            <mxPoint x="-1460" y="450.5" as="targetPoint" />
          </mxGeometry>
        </mxCell>
        <mxCell id="NDW06Zr77RIwt1MHqJ4M-201" value="" style="endArrow=classic;html=1;rounded=0;entryX=-0.002;entryY=0.083;entryDx=0;entryDy=0;exitX=0.182;exitY=1.07;exitDx=0;exitDy=0;exitPerimeter=0;entryPerimeter=0;" parent="1" source="NDW06Zr77RIwt1MHqJ4M-193" target="NDW06Zr77RIwt1MHqJ4M-199" edge="1">
          <mxGeometry width="50" height="50" relative="1" as="geometry">
            <mxPoint x="-1885.88" y="490.5" as="sourcePoint" />
            <mxPoint x="-1835.88" y="440.5" as="targetPoint" />
            <Array as="points">
              <mxPoint x="-2128" y="400.5" />
            </Array>
          </mxGeometry>
        </mxCell>
        <mxCell id="NDW06Zr77RIwt1MHqJ4M-202" value="&lt;span style=&quot;font-size: 13px;&quot;&gt;&lt;b&gt;&lt;font face=&quot;Times New Roman&quot;&gt;Appiontment&amp;nbsp; Form&lt;/font&gt;&lt;/b&gt;&lt;/span&gt;" style="rounded=0;whiteSpace=wrap;html=1;" parent="1" vertex="1">
          <mxGeometry x="-1784.5" y="505.25" width="90" height="47" as="geometry" />
        </mxCell>
        <mxCell id="NDW06Zr77RIwt1MHqJ4M-203" value="" style="endArrow=classic;html=1;rounded=0;exitX=0.25;exitY=1;exitDx=0;exitDy=0;entryX=1;entryY=0.5;entryDx=0;entryDy=0;dashed=1;edgeStyle=orthogonalEdgeStyle;" parent="1" source="NDW06Zr77RIwt1MHqJ4M-199" target="NDW06Zr77RIwt1MHqJ4M-202" edge="1">
          <mxGeometry width="50" height="50" relative="1" as="geometry">
            <mxPoint x="-1590.31" y="623.25" as="sourcePoint" />
            <mxPoint x="-1680" y="523.75" as="targetPoint" />
          </mxGeometry>
        </mxCell>
        <mxCell id="NDW06Zr77RIwt1MHqJ4M-204" value="&lt;b&gt;&lt;font face=&quot;Times New Roman&quot; style=&quot;font-size: 14px;&quot;&gt;Recieve&amp;nbsp; Appiontment Form&lt;/font&gt;&lt;/b&gt;" style="rounded=1;whiteSpace=wrap;html=1;" parent="1" vertex="1">
          <mxGeometry x="-2150" y="573.25" width="205.69" height="60" as="geometry" />
        </mxCell>
        <mxCell id="NDW06Zr77RIwt1MHqJ4M-205" value="" style="endArrow=classic;html=1;rounded=0;exitX=0;exitY=0.5;exitDx=0;exitDy=0;entryX=0.5;entryY=0;entryDx=0;entryDy=0;dashed=1;edgeStyle=orthogonalEdgeStyle;" parent="1" source="NDW06Zr77RIwt1MHqJ4M-202" target="NDW06Zr77RIwt1MHqJ4M-204" edge="1">
          <mxGeometry width="50" height="50" relative="1" as="geometry">
            <mxPoint x="-1881.19" y="683.25" as="sourcePoint" />
            <mxPoint x="-1831.19" y="633.25" as="targetPoint" />
          </mxGeometry>
        </mxCell>
        <mxCell id="NDW06Zr77RIwt1MHqJ4M-206" value="" style="endArrow=classic;html=1;rounded=0;exitX=0.5;exitY=1;exitDx=0;exitDy=0;entryX=1;entryY=0.5;entryDx=0;entryDy=0;edgeStyle=orthogonalEdgeStyle;" parent="1" source="NDW06Zr77RIwt1MHqJ4M-199" target="NDW06Zr77RIwt1MHqJ4M-204" edge="1">
          <mxGeometry width="50" height="50" relative="1" as="geometry">
            <mxPoint x="-1761.19" y="693.25" as="sourcePoint" />
            <mxPoint x="-1711.19" y="643.25" as="targetPoint" />
          </mxGeometry>
        </mxCell>
        <mxCell id="NDW06Zr77RIwt1MHqJ4M-207" value="" style="ellipse;html=1;shape=endState;fillColor=strokeColor;" parent="1" vertex="1">
          <mxGeometry x="-2068.56" y="690.5" width="30" height="30" as="geometry" />
        </mxCell>
        <mxCell id="NDW06Zr77RIwt1MHqJ4M-208" value="" style="endArrow=classic;html=1;rounded=0;exitX=0.462;exitY=0.972;exitDx=0;exitDy=0;exitPerimeter=0;entryX=0.5;entryY=0;entryDx=0;entryDy=0;" parent="1" source="NDW06Zr77RIwt1MHqJ4M-204" target="NDW06Zr77RIwt1MHqJ4M-207" edge="1">
          <mxGeometry width="50" height="50" relative="1" as="geometry">
            <mxPoint x="-1931.19" y="713.25" as="sourcePoint" />
            <mxPoint x="-1881.19" y="663.25" as="targetPoint" />
          </mxGeometry>
        </mxCell>
        <mxCell id="NDW06Zr77RIwt1MHqJ4M-211" value="&lt;b&gt;&lt;font face=&quot;Times New Roman&quot; style=&quot;font-size: 14px;&quot;&gt;Has unpaid bill&lt;/font&gt;&lt;/b&gt;" style="text;html=1;strokeColor=none;fillColor=none;align=center;verticalAlign=middle;whiteSpace=wrap;rounded=0;" parent="1" vertex="1">
          <mxGeometry x="-1525" y="49.5" width="60" height="30" as="geometry" />
        </mxCell>
        <mxCell id="NDW06Zr77RIwt1MHqJ4M-212" value="&lt;b&gt;&lt;font face=&quot;Times New Roman&quot; style=&quot;font-size: 14px;&quot;&gt;Has no unpaid bill&lt;/font&gt;&lt;/b&gt;" style="text;html=1;strokeColor=none;fillColor=none;align=center;verticalAlign=middle;whiteSpace=wrap;rounded=0;" parent="1" vertex="1">
          <mxGeometry x="-1475" y="-4.5" width="60" height="30" as="geometry" />
        </mxCell>
        <mxCell id="NDW06Zr77RIwt1MHqJ4M-213" value="" style="endArrow=classic;html=1;rounded=0;entryX=0.145;entryY=0.961;entryDx=0;entryDy=0;edgeStyle=orthogonalEdgeStyle;entryPerimeter=0;" parent="1" target="NDW06Zr77RIwt1MHqJ4M-182" edge="1">
          <mxGeometry width="50" height="50" relative="1" as="geometry">
            <mxPoint x="-1485" y="200.5" as="sourcePoint" />
            <mxPoint x="-1435" y="150.5" as="targetPoint" />
          </mxGeometry>
        </mxCell>
        <mxCell id="HjhfReVfsyiZavH_4XQb-7" value="" style="endArrow=classic;html=1;rounded=0;entryX=0.5;entryY=0;entryDx=0;entryDy=0;" parent="1" source="NDW06Zr77RIwt1MHqJ4M-107" target="NDW06Zr77RIwt1MHqJ4M-147" edge="1">
          <mxGeometry width="50" height="50" relative="1" as="geometry">
            <mxPoint x="-1509.1200000000003" y="-402.5" as="sourcePoint" />
            <mxPoint x="-1719.12" y="-329.5" as="targetPoint" />
          </mxGeometry>
        </mxCell>
        <mxCell id="HjhfReVfsyiZavH_4XQb-14" value="" style="endArrow=none;startArrow=none;endFill=0;startFill=0;endSize=8;html=1;verticalAlign=bottom;labelBackgroundColor=none;strokeWidth=5;rounded=0;" parent="1" edge="1">
          <mxGeometry width="160" relative="1" as="geometry">
            <mxPoint x="-2059.88" y="-426.5" as="sourcePoint" />
            <mxPoint x="-1899.88" y="-426.5" as="targetPoint" />
          </mxGeometry>
        </mxCell>
        <mxCell id="HjhfReVfsyiZavH_4XQb-16" value="" style="endArrow=classic;html=1;rounded=0;entryX=0.606;entryY=-0.039;entryDx=0;entryDy=0;entryPerimeter=0;" parent="1" target="HjhfReVfsyiZavH_4XQb-19" edge="1">
          <mxGeometry width="50" height="50" relative="1" as="geometry">
            <mxPoint x="-1929.88" y="-426.5" as="sourcePoint" />
            <mxPoint x="-1862.3800000000006" y="-389.5" as="targetPoint" />
          </mxGeometry>
        </mxCell>
        <mxCell id="HjhfReVfsyiZavH_4XQb-17" value="&lt;font face=&quot;Times New Roman&quot;&gt;&lt;b style=&quot;font-size: 14px;&quot;&gt;Cancel&amp;nbsp;&lt;/b&gt;&lt;b style=&quot;border-color: var(--border-color);&quot;&gt;&lt;font style=&quot;border-color: var(--border-color); font-size: 14px;&quot;&gt;Appiontment&lt;/font&gt;&lt;/b&gt;&lt;b&gt;&lt;br&gt;&amp;nbsp;&lt;/b&gt;&lt;/font&gt;" style="rounded=1;whiteSpace=wrap;html=1;" parent="1" vertex="1">
          <mxGeometry x="-2218" y="-379.5" width="139.75" height="40" as="geometry" />
        </mxCell>
        <mxCell id="HjhfReVfsyiZavH_4XQb-18" value="" style="endArrow=classic;html=1;rounded=0;" parent="1" target="HjhfReVfsyiZavH_4XQb-17" edge="1">
          <mxGeometry width="50" height="50" relative="1" as="geometry">
            <mxPoint x="-1989.88" y="-426.5" as="sourcePoint" />
            <mxPoint x="-2139.88" y="-296.5" as="targetPoint" />
          </mxGeometry>
        </mxCell>
        <mxCell id="HjhfReVfsyiZavH_4XQb-19" value="&lt;b style=&quot;font-size: 14px;&quot;&gt;&lt;font face=&quot;Times New Roman&quot;&gt;Schedule&lt;/font&gt;&lt;/b&gt;" style="rounded=1;whiteSpace=wrap;html=1;" parent="1" vertex="1">
          <mxGeometry x="-1924.25" y="-379.5" width="104.25" height="40" as="geometry" />
        </mxCell>
        <mxCell id="HjhfReVfsyiZavH_4XQb-21" value="&lt;b style=&quot;font-size: 14px;&quot;&gt;&lt;font face=&quot;Times New Roman&quot;&gt;Reschedule&lt;/font&gt;&lt;/b&gt;" style="rounded=1;whiteSpace=wrap;html=1;" parent="1" vertex="1">
          <mxGeometry x="-2073" y="-379.5" width="139.75" height="40" as="geometry" />
        </mxCell>
        <mxCell id="HjhfReVfsyiZavH_4XQb-23" value="" style="endArrow=classic;html=1;rounded=0;" parent="1" edge="1">
          <mxGeometry width="50" height="50" relative="1" as="geometry">
            <mxPoint x="-1963" y="-429.5" as="sourcePoint" />
            <mxPoint x="-2003" y="-379.5" as="targetPoint" />
          </mxGeometry>
        </mxCell>
        <mxCell id="HjhfReVfsyiZavH_4XQb-24" value="" style="endArrow=classic;html=1;rounded=0;exitX=0.582;exitY=0.996;exitDx=0;exitDy=0;exitPerimeter=0;entryX=0.5;entryY=0;entryDx=0;entryDy=0;edgeStyle=orthogonalEdgeStyle;" parent="1" source="HjhfReVfsyiZavH_4XQb-19" target="NDW06Zr77RIwt1MHqJ4M-160" edge="1">
          <mxGeometry width="50" height="50" relative="1" as="geometry">
            <mxPoint x="-1870" y="-219.5" as="sourcePoint" />
            <mxPoint x="-1820" y="-269.5" as="targetPoint" />
          </mxGeometry>
        </mxCell>
        <mxCell id="HjhfReVfsyiZavH_4XQb-25" value="" style="endArrow=classic;html=1;rounded=0;exitX=0.75;exitY=1;exitDx=0;exitDy=0;" parent="1" source="HjhfReVfsyiZavH_4XQb-54" edge="1">
          <mxGeometry width="50" height="50" relative="1" as="geometry">
            <mxPoint x="-1833" y="-329.5" as="sourcePoint" />
            <mxPoint x="-1968" y="-259.5" as="targetPoint" />
          </mxGeometry>
        </mxCell>
        <mxCell id="HjhfReVfsyiZavH_4XQb-26" value="" style="endArrow=classic;html=1;rounded=0;exitX=0.5;exitY=1;exitDx=0;exitDy=0;entryX=0.5;entryY=0;entryDx=0;entryDy=0;" parent="1" source="HjhfReVfsyiZavH_4XQb-17" target="HjhfReVfsyiZavH_4XQb-31" edge="1">
          <mxGeometry width="50" height="50" relative="1" as="geometry">
            <mxPoint x="-2303" y="-209.5" as="sourcePoint" />
            <mxPoint x="-2258.61475" y="-298.94000000000005" as="targetPoint" />
          </mxGeometry>
        </mxCell>
        <mxCell id="HjhfReVfsyiZavH_4XQb-31" value="" style="rhombus;whiteSpace=wrap;html=1;" parent="1" vertex="1">
          <mxGeometry x="-2163.13" y="-299.5" width="30" height="33" as="geometry" />
        </mxCell>
        <mxCell id="HjhfReVfsyiZavH_4XQb-34" value="" style="endArrow=classic;html=1;rounded=0;exitX=0;exitY=0.5;exitDx=0;exitDy=0;entryX=0.59;entryY=0.024;entryDx=0;entryDy=0;entryPerimeter=0;edgeStyle=orthogonalEdgeStyle;" parent="1" source="HjhfReVfsyiZavH_4XQb-31" target="HjhfReVfsyiZavH_4XQb-35" edge="1">
          <mxGeometry width="50" height="50" relative="1" as="geometry">
            <mxPoint x="-2283" y="-149.5" as="sourcePoint" />
            <mxPoint x="-2233" y="-209.5" as="targetPoint" />
          </mxGeometry>
        </mxCell>
        <mxCell id="HjhfReVfsyiZavH_4XQb-35" value="&lt;b&gt;&lt;font face=&quot;Times New Roman&quot; style=&quot;font-size: 14px;&quot;&gt;Choose Cancel Appointment&lt;/font&gt;&lt;/b&gt;" style="rounded=1;whiteSpace=wrap;html=1;" parent="1" vertex="1">
          <mxGeometry x="-2290" y="-219.5" width="112.87" height="37" as="geometry" />
        </mxCell>
        <mxCell id="HjhfReVfsyiZavH_4XQb-36" value="Has Appointment" style="text;whiteSpace=wrap;fontStyle=1;fontSize=14;fontFamily=Times New Roman;" parent="1" vertex="1">
          <mxGeometry x="-2273" y="-279.5" width="80" height="40" as="geometry" />
        </mxCell>
        <mxCell id="HjhfReVfsyiZavH_4XQb-40" value="" style="endArrow=classic;html=1;rounded=0;exitX=1;exitY=0.5;exitDx=0;exitDy=0;elbow=vertical;" parent="1" source="HjhfReVfsyiZavH_4XQb-31" edge="1">
          <mxGeometry width="50" height="50" relative="1" as="geometry">
            <mxPoint x="-2403" y="-59.5" as="sourcePoint" />
            <mxPoint x="-2040" y="-430" as="targetPoint" />
            <Array as="points">
              <mxPoint x="-2133" y="-480" />
              <mxPoint x="-2040" y="-480" />
            </Array>
          </mxGeometry>
        </mxCell>
        <mxCell id="HjhfReVfsyiZavH_4XQb-41" value="No Appointment" style="text;whiteSpace=wrap;fontStyle=1;fontSize=14;fontFamily=Times New Roman;" parent="1" vertex="1">
          <mxGeometry x="-2128.88" y="-329.5" width="80" height="40" as="geometry" />
        </mxCell>
        <mxCell id="HjhfReVfsyiZavH_4XQb-43" value="&lt;b&gt;&lt;font face=&quot;Times New Roman&quot; style=&quot;font-size: 14px;&quot;&gt;Money-back&lt;/font&gt;&lt;/b&gt;" style="rounded=1;whiteSpace=wrap;html=1;" parent="1" vertex="1">
          <mxGeometry x="-2170" y="-89.5" width="250" height="60" as="geometry" />
        </mxCell>
        <mxCell id="HjhfReVfsyiZavH_4XQb-44" value="" style="endArrow=classic;html=1;rounded=0;entryX=0;entryY=0.5;entryDx=0;entryDy=0;exitX=0.5;exitY=1;exitDx=0;exitDy=0;edgeStyle=orthogonalEdgeStyle;" parent="1" source="HjhfReVfsyiZavH_4XQb-35" target="HjhfReVfsyiZavH_4XQb-43" edge="1">
          <mxGeometry width="50" height="50" relative="1" as="geometry">
            <mxPoint x="-2200" y="-159.5" as="sourcePoint" />
            <mxPoint x="-2150" y="-209.5" as="targetPoint" />
          </mxGeometry>
        </mxCell>
        <mxCell id="HjhfReVfsyiZavH_4XQb-47" value="&lt;b&gt;&lt;font face=&quot;Times New Roman&quot; style=&quot;font-size: 13px;&quot;&gt;Bill&lt;/font&gt;&lt;/b&gt;" style="rounded=0;whiteSpace=wrap;html=1;" parent="1" vertex="1">
          <mxGeometry x="-1769.5" y="-89.5" width="60" height="35" as="geometry" />
        </mxCell>
        <mxCell id="HjhfReVfsyiZavH_4XQb-49" value="" style="endArrow=classic;html=1;rounded=0;entryX=-0.092;entryY=0.386;entryDx=0;entryDy=0;exitX=1;exitY=0.25;exitDx=0;exitDy=0;dashed=1;entryPerimeter=0;" parent="1" source="HjhfReVfsyiZavH_4XQb-43" target="HjhfReVfsyiZavH_4XQb-47" edge="1">
          <mxGeometry width="50" height="50" relative="1" as="geometry">
            <mxPoint x="-2090" y="60.5" as="sourcePoint" />
            <mxPoint x="-2040" y="10.5" as="targetPoint" />
          </mxGeometry>
        </mxCell>
        <mxCell id="HjhfReVfsyiZavH_4XQb-50" value="" style="endArrow=classic;html=1;rounded=0;exitX=0;exitY=0.75;exitDx=0;exitDy=0;edgeStyle=elbowEdgeStyle;dashed=1;" parent="1" source="HjhfReVfsyiZavH_4XQb-47" edge="1">
          <mxGeometry width="50" height="50" relative="1" as="geometry">
            <mxPoint x="-1760" y="-69.5" as="sourcePoint" />
            <mxPoint x="-1940" y="449" as="targetPoint" />
          </mxGeometry>
        </mxCell>
        <mxCell id="HjhfReVfsyiZavH_4XQb-51" value="&lt;b&gt;&lt;font face=&quot;Times New Roman&quot; style=&quot;font-size: 14px;&quot;&gt;Change appointment Status&lt;/font&gt;&lt;/b&gt;" style="rounded=1;whiteSpace=wrap;html=1;" parent="1" vertex="1">
          <mxGeometry x="-2163.56" y="420.75" width="220" height="60" as="geometry" />
        </mxCell>
        <mxCell id="HjhfReVfsyiZavH_4XQb-52" value="" style="endArrow=classic;html=1;rounded=0;exitX=0;exitY=0.75;exitDx=0;exitDy=0;entryX=0;entryY=0;entryDx=0;entryDy=0;edgeStyle=elbowEdgeStyle;" parent="1" source="HjhfReVfsyiZavH_4XQb-51" target="NDW06Zr77RIwt1MHqJ4M-207" edge="1">
          <mxGeometry width="50" height="50" relative="1" as="geometry">
            <mxPoint x="-2220" y="740.5" as="sourcePoint" />
            <mxPoint x="-2170" y="690.5" as="targetPoint" />
            <Array as="points">
              <mxPoint x="-2190" y="590.5" />
            </Array>
          </mxGeometry>
        </mxCell>
        <mxCell id="HjhfReVfsyiZavH_4XQb-55" value="" style="endArrow=classic;html=1;rounded=0;exitX=0.75;exitY=1;exitDx=0;exitDy=0;" parent="1" source="HjhfReVfsyiZavH_4XQb-21" target="HjhfReVfsyiZavH_4XQb-54" edge="1">
          <mxGeometry width="50" height="50" relative="1" as="geometry">
            <mxPoint x="-3078" y="-1112.5" as="sourcePoint" />
            <mxPoint x="-3078" y="-1032.5" as="targetPoint" />
          </mxGeometry>
        </mxCell>
        <mxCell id="HjhfReVfsyiZavH_4XQb-54" value="" style="rhombus;whiteSpace=wrap;html=1;" parent="1" vertex="1">
          <mxGeometry x="-1983" y="-266.5" width="29" height="26" as="geometry" />
        </mxCell>
        <mxCell id="HjhfReVfsyiZavH_4XQb-56" value="" style="endArrow=classic;html=1;rounded=0;exitX=0;exitY=0.5;exitDx=0;exitDy=0;entryX=0.5;entryY=0;entryDx=0;entryDy=0;edgeStyle=orthogonalEdgeStyle;" parent="1" source="HjhfReVfsyiZavH_4XQb-54" target="HjhfReVfsyiZavH_4XQb-57" edge="1">
          <mxGeometry width="50" height="50" relative="1" as="geometry">
            <mxPoint x="-2083" y="-149.5" as="sourcePoint" />
            <mxPoint x="-2033" y="-199.5" as="targetPoint" />
          </mxGeometry>
        </mxCell>
        <mxCell id="HjhfReVfsyiZavH_4XQb-57" value="&lt;b style=&quot;border-color: var(--border-color);&quot;&gt;&lt;font face=&quot;Times New Roman&quot; style=&quot;border-color: var(--border-color); font-size: 14px;&quot;&gt;Choose&amp;nbsp;&lt;b style=&quot;border-color: var(--border-color);&quot;&gt;Reschedule&lt;/b&gt;&lt;br&gt;&amp;nbsp;Appointment&lt;/font&gt;&lt;/b&gt;" style="rounded=1;whiteSpace=wrap;html=1;" parent="1" vertex="1">
          <mxGeometry x="-2153" y="-199.5" width="136" height="37" as="geometry" />
        </mxCell>
        <mxCell id="HjhfReVfsyiZavH_4XQb-60" value="" style="endArrow=classic;html=1;rounded=0;exitX=1;exitY=0.5;exitDx=0;exitDy=0;edgeStyle=elbowEdgeStyle;" parent="1" source="HjhfReVfsyiZavH_4XQb-54" edge="1">
          <mxGeometry width="50" height="50" relative="1" as="geometry">
            <mxPoint x="-1943" y="-159.5" as="sourcePoint" />
            <mxPoint x="-1954" y="-429.5" as="targetPoint" />
          </mxGeometry>
        </mxCell>
        <mxCell id="HjhfReVfsyiZavH_4XQb-62" value="Has Appointment" style="text;whiteSpace=wrap;fontStyle=1;fontSize=14;fontFamily=Times New Roman;" parent="1" vertex="1">
          <mxGeometry x="-2068.88" y="-249.5" width="80" height="40" as="geometry" />
        </mxCell>
        <mxCell id="HjhfReVfsyiZavH_4XQb-63" value="No Appointment" style="text;whiteSpace=wrap;fontStyle=1;fontSize=14;fontFamily=Times New Roman;" parent="1" vertex="1">
          <mxGeometry x="-1953" y="-319.5" width="80" height="40" as="geometry" />
        </mxCell>
        <mxCell id="HjhfReVfsyiZavH_4XQb-64" value="" style="endArrow=classic;html=1;rounded=0;exitX=1;exitY=0.75;exitDx=0;exitDy=0;entryX=0.009;entryY=0.872;entryDx=0;entryDy=0;edgeStyle=elbowEdgeStyle;entryPerimeter=0;" parent="1" source="HjhfReVfsyiZavH_4XQb-57" target="NDW06Zr77RIwt1MHqJ4M-182" edge="1">
          <mxGeometry width="50" height="50" relative="1" as="geometry">
            <mxPoint x="-1670" y="-79.5" as="sourcePoint" />
            <mxPoint x="-1620" y="-129.5" as="targetPoint" />
            <Array as="points">
              <mxPoint x="-1640" y="-40" />
            </Array>
          </mxGeometry>
        </mxCell>
      </root>
    </mxGraphModel>
  </diagram>
</mxfile>
